HIERARCHY
ROOT Hips
{
	OFFSET	0	0	0
	CHANNELS 6  Xposition Yposition Zposition Xrotation Yrotation Zrotation
	JOINT Spine
	{
		OFFSET	0	3.19623	0.642429
		CHANNELS 3  Xrotation Yrotation Zrotation
		JOINT Spine1
		{
			OFFSET	0	5.47858	-0.978319
			CHANNELS 3  Xrotation Yrotation Zrotation
			JOINT Spine2
			{
				OFFSET	0	4.15296	0.445135
				CHANNELS 3  Xrotation Yrotation Zrotation
				JOINT Spine3
				{
					OFFSET	0	4.96986	1.47726
					CHANNELS 3  Xrotation Yrotation Zrotation
					JOINT Spine4
					{
						OFFSET	0	7.35696	-0.753305
						CHANNELS 3  Xrotation Yrotation Zrotation
						JOINT Neck
						{
							OFFSET	0	3.51216	-2.46047
							CHANNELS 3  Xrotation Yrotation Zrotation
							JOINT Head
							{
								OFFSET	0	4.21655	-1.26203
								CHANNELS 3  Xrotation Yrotation Zrotation
								End Site
								{
									OFFSET	0	8.79508	-0.425569
								}
							}
						}
					}
					JOINT LeftShoulder
					{
						OFFSET	-2.11317	8.94183	-4.21655
						CHANNELS 3  Xrotation Yrotation Zrotation
						JOINT LeftArm
						{
							OFFSET	-4.62126	-1.26203	1.61913
							CHANNELS 3  Xrotation Yrotation Zrotation
							JOINT LeftForeArm
							{
								OFFSET	-15.9392	-0.727493	1.13773
								CHANNELS 3  Xrotation Yrotation Zrotation
								JOINT LeftHand
								{
									OFFSET	-12.8901	-0.890778	0.920079
									CHANNELS 3  Xrotation Yrotation Zrotation
									End Site
									{
										OFFSET	-4.70424	-0.325089	0.335762
									}
								}
							}
						}
					}
					JOINT RightShoulder
					{
						OFFSET	2.11317	8.94183	-4.21655
						CHANNELS 3  Xrotation Yrotation Zrotation
						JOINT RightArm
						{
							OFFSET	4.62126	-1.26203	1.61913
							CHANNELS 3  Xrotation Yrotation Zrotation
							JOINT RightForeArm
							{
								OFFSET	15.9392	-0.727493	1.13773
								CHANNELS 3  Xrotation Yrotation Zrotation
								JOINT RightHand
								{
									OFFSET	12.8901	-0.890778	0.920079
									CHANNELS 3  Xrotation Yrotation Zrotation
									End Site
									{
										OFFSET	4.70424	-0.325089	0.335762
									}
								}
							}
						}
					}
				}
			}
		}
	}
	JOINT LeftUpLeg
	{
		OFFSET	-4.36218	-1.59811	-0.321215
		CHANNELS 3  Xrotation Yrotation Zrotation
		JOINT LeftLeg
		{
			OFFSET	-1.01617	-19.9114	-0.311258
			CHANNELS 3  Xrotation Yrotation Zrotation
			JOINT LeftFoot
			{
				OFFSET	-0.990294	-18.2543	1.56987
				CHANNELS 3  Xrotation Yrotation Zrotation
				JOINT LeftToeBase
				{
					OFFSET	0	-2.30168	-6.11325
					CHANNELS 3  Xrotation Yrotation Zrotation
					End Site
					{
						OFFSET	0	-0.92067	-3.68268
					}
				}
			}
		}
	}
	JOINT RightUpLeg
	{
		OFFSET	4.36218	-1.59811	-0.321215
		CHANNELS 3  Xrotation Yrotation Zrotation
		JOINT RightLeg
		{
			OFFSET	1.01617	-19.9114	-0.311258
			CHANNELS 3  Xrotation Yrotation Zrotation
			JOINT RightFoot
			{
				OFFSET	0.990294	-18.2543	1.56987
				CHANNELS 3  Xrotation Yrotation Zrotation
				JOINT RightToeBase
				{
					OFFSET	0	-2.30168	-6.11325
					CHANNELS 3  Xrotation Yrotation Zrotation
					End Site
					{
						OFFSET	0	-0.92067	-3.68268
					}
				}
			}
		}
	}
}
MOTION
Frames: 15
Frame Time: 0.033333
 0 17.389 5.0787 -0 0 -0 -0 0 -0 -0 0 -0 -0 0 -0 -0 0 -0 -0 0 -0 -0 0 -0 -0 0 -0 -0 0 -0 -0 0 -0 -0 0 -0 -0 0 -0 -0 0 -0 -0 0 -0 -0 0 -0 -0 0 -0 -0 0 -0 -0 0 -0 -0 0 -0 -0 0 -0 -0 0 -0 -0 0 -0 -0 0 -0 -0 0 -0
 -5.12401 46.6425 -43.7048 86.3696 -88.4041 79.87 0.000167799 -0.00444971 2.15961 0.977733 -0.00888819 3.59934 0.547557 -0.0266646 3.59934 179.358 -179.996 -177.84 3.34452 0.0419992 0.718643 7.80344 0.449471 -14.1574 2.73006 18.7554 -3.53466 169.69 -153.517 157.126 42.3671 14.6381 -4.51682 97.6882 -15.803 116.156 -0 12.2353 -54.4329 169.907 157.814 -157.668 79.5271 -19.7591 -0.543913 61.0968 42.2632 -50.6616 -0 15.458 -40.3763 162.702 146.628 -163.235 10.0832 9.94348 5.51864 159.09 -179.98 165.69 179.831 180 -180 179.322 -171.36 -177.147 0.428994 -1.40837 -6.39064 177.212 179.923 168.716 0.579363 0 0
 -5.14829 46.6379 -43.7341 101.392 -88.3643 94.8583 9.35983e-05 -0.00247329 2.16724 0.972664 -0.0049403 3.61207 0.560538 -0.0148209 3.61207 179.41 -179.998 -177.833 3.21311 0.0404934 0.721279 7.41667 0.7357 -14.552 2.62543 19.5651 -3.58297 169.778 -153.473 157.331 44.2986 15.21 -4.57805 96.7553 -13.5466 117.098 -0 14.0642 -55.1516 170.061 158.067 -158.032 78.3024 -19.7191 -1.24664 62.6055 42.1708 -52.3507 -0 16.0089 -39.6882 162.288 146.147 -162.768 10.3515 9.93771 5.37739 159.368 -179.971 165.698 179.829 180 -180 179.533 -171.512 -177.02 0.0607093 -1.2471 -6.44756 177.339 179.917 168.674 0.590941 0 0
 -5.14339 46.6533 -43.7368 106.086 -88.178 99.604 180 179.998 -177.84 0.956813 0.00340222 3.60077 0.560259 0.0102067 3.60077 179.45 179.998 -177.84 3.09165 0.0388423 0.719106 7.07163 1.04907 -14.9462 2.53343 20.427 -3.63031 169.616 -153.564 156.955 46.5283 15.9834 -5.0327 95.813 -11.3552 117.668 -0 15.9446 -55.9995 170.115 158.3 -158.163 76.7291 -19.7225 -1.95138 63.7742 42.0193 -53.6132 -0 16.5458 -39.2565 162.003 145.782 -162.667 10.4662 9.90093 5.22341 159.697 -179.925 165.705 179.826 180 -180 179.682 -171.439 -177.017 179.382 -178.825 173.579 177.145 179.899 168.658 0.602394 0 0
 -5.1339 46.7443 -43.7642 103.835 -87.9421 97.3209 180 179.99 -177.854 0.949741 0.0196687 3.57676 0.585531 0.0590062 3.57676 179.548 179.99 -177.854 2.84903 0.035558 0.714468 6.37922 1.4493 -15.3691 2.32738 21.3267 -3.64457 168.898 -154.192 155.279 48.8769 16.7274 -6.25114 94.6442 -9.30482 116.68 -0 17.9704 -56.9842 170.122 158.685 -158.188 75.3713 -19.8078 -2.59291 64.663 41.7679 -54.5673 -0 17.0489 -38.768 161.646 145.503 -162.504 10.7169 9.84975 4.966 159.338 -179.901 165.701 179.821 180 -180 179.712 -171.311 -177.003 178.764 -178.871 173.735 175.882 179.923 168.629 0.609335 0 0
 -5.1457 47.0035 -43.7747 110.717 -87.7664 104.507 180 179.994 -177.929 0.974557 0.01134 3.45096 0.675216 0.0340199 3.45096 179.756 179.994 -177.929 2.41072 0.0290326 0.68958 5.19959 2.25953 -15.3646 1.92811 22.1465 -3.45829 168.41 -153.766 154.134 51.2749 15.6592 -8.21564 93.3714 -7.11321 115.148 -0 20.1113 -57.5937 169.866 158.735 -157.598 74.286 -19.7789 -3.37396 64.8794 41.2895 -54.5247 -0 17.5247 -38.2237 161.301 145.159 -162.647 11.0878 9.91895 4.87095 157.556 -179.935 165.681 179.811 180 -180 179.872 -171.093 -177.273 178.449 -178.902 173.693 173.45 179.908 168.568 0.618832 0 0
 -5.22304 47.108 -43.817 102.629 -87.339 96.6503 180 179.994 -177.993 0.999692 0.0125215 3.34477 0.843493 0.0375645 3.34477 0.202522 0.00626759 2.00686 1.41653 0.0165377 0.668749 2.51052 3.53596 -15.0611 1.00653 22.8635 -3.0099 168.42 -153.707 154.157 56.5263 12.8377 -11.8829 92.4479 -5.10383 113.848 -0 21.9061 -57.731 169.793 158.716 -157.429 72.5588 -20.2228 -4.7646 64.6462 40.7676 -53.9393 -0 17.9193 -38.0285 161.307 144.861 -162.877 11.0029 9.85892 4.49646 156.747 -179.879 165.675 179.802 180 -180 179.734 -170.791 -177.412 177.954 -178.884 173.704 171.981 179.936 168.505 0.628122 0 0
 -5.14044 47.1611 -43.7738 112.85 -86.66 107.185 180 180 -177.969 1.09644 0.000281411 3.3857 1.05091 0.000844232 3.3857 0.594467 0.000140863 2.03142 0.683944 0.00808326 0.677092 0.47462 4.56665 -14.6257 0.297133 23.3756 -2.60983 168.47 -153.622 154.276 64.5015 9.51159 -15.337 91.7855 -4.0279 111.669 -0 22.8422 -57.5731 169.495 158.156 -156.718 70.4475 -20.9622 -6.61495 63.8741 40.1282 -52.5556 -0 18.2706 -38.0431 160.802 144.55 -163.114 11.0285 9.88819 4.1688 156.808 -179.886 165.686 179.789 180 -180 179.381 -170.622 -177.745 177.441 -178.967 173.583 170.906 179.882 168.391 0.638066 0 0
 -4.8535 47.1713 -43.6012 112.895 -86.0529 107.354 0.000180985 -0.00500603 2.07053 1.3004 -0.0100004 3.45089 1.35961 -0.0300013 3.45089 1.04074 -0.00500603 2.07053 0.0272091 0.000327773 0.690178 178.558 174.452 166.08 179.62 156.336 177.838 168.673 -153.457 154.755 76.4366 4.9549 -18.4534 91.6321 -4.07134 110.348 -0 22.6689 -57.208 169.073 157.394 -155.716 68.6487 -21.6231 -8.25734 62.6825 39.3104 -50.668 -0 18.5872 -38.1582 160.221 144.294 -163.463 10.6548 9.84962 3.69759 157.258 -179.836 165.711 179.775 180 -180 178.268 -170.263 -178.238 177.502 -178.873 173.706 170.964 179.843 168.313 0.651216 0 0
 -4.73388 47.1084 -43.5644 128.212 -85.6705 122.772 0.000844803 -0.0227184 2.12961 1.48554 -0.0453811 3.54935 1.59787 -0.136143 3.54936 1.30943 -0.0227184 2.12961 179.747 -179.997 -179.29 177.653 173.985 166.441 179.301 156.177 178.056 168.615 -153.559 154.618 86.3606 0.592431 -19.2296 91.4189 -5.36212 108.452 -0 21.6497 -56.2263 168.696 156.296 -154.81 67.9368 -21.7615 -9.1834 61.5741 38.4388 -48.7555 -0 18.8806 -38.0981 160.154 144.006 -163.591 10.624 9.94892 3.98049 157.64 -179.94 165.704 179.761 180 -180 178.275 -170.273 -178.392 177.439 -179.011 173.669 170.987 179.731 168.163 0.661706 0 0
 -4.72385 47.0349 -43.5818 141.252 -85.174 135.892 0.00119444 -0.0312177 2.19116 1.68941 -0.0623543 3.65194 1.80163 -0.187063 3.65196 1.4376 -0.0312177 2.19116 179.832 -179.998 -179.27 177.632 174.249 165.905 179.316 156.1 177.901 168.656 -153.54 154.715 95.643 -3.26683 -19.4015 92.0534 -7.38809 107.446 -0 19.8466 -55.242 168.617 155.069 -154.615 68.2811 -21.5456 -9.39346 60.4677 37.5367 -46.9175 -0 19.1045 -37.9362 160.736 143.784 -163.964 10.1946 9.98315 4.48802 158.24 179.963 165.681 179.749 180 -180 178.793 -170.452 -178.393 177.222 -179.303 173.585 171.392 179.708 167.991 0.673516 0 0
 -4.77477 46.953 -43.6092 155.531 -84.5044 149.988 0.00177863 -0.0447885 2.27413 1.84827 -0.0894515 3.79021 1.89879 -0.268355 3.79025 1.34601 -0.0447885 2.27413 0.343411 0.00454367 0.758028 178.774 175.071 164.873 179.746 156.063 177.463 168.961 -153.38 155.431 103.239 -5.36165 -18.9684 92.5634 -9.81961 106.815 -0 17.8852 -54.742 168.558 153.996 -154.48 68.8487 -20.9391 -9.17541 59.8073 36.9479 -45.857 -0 19.1694 -37.786 161.466 143.617 -164.046 9.8864 10.0669 5.18329 158.588 179.851 165.595 179.737 180 -180 179.75 -170.756 -178.35 177.098 -179.698 173.803 172.037 179.671 167.806 0.684982 0 0
 -4.85353 46.897 -43.7096 164.172 -84.14 158.304 0.00166697 -0.0412286 2.31535 1.95448 -0.0823374 3.85891 1.90789 -0.247012 3.85894 1.12787 -0.0412286 2.31535 1.0534 0.0141895 0.771651 0.437178 3.71576 -16.4193 0.378169 23.9187 -3.13537 168.981 -153.989 155.474 106.974 -6.19737 -18.5512 93.1333 -11.8182 106.876 -0 16.1529 -53.8803 168.583 153.995 -154.539 69.4377 -20.0241 -8.94421 59.7053 36.5292 -45.5735 -0 19.2206 -37.5555 162.07 143.559 -163.923 9.5889 10.0701 5.85312 158.696 179.794 165.564 179.723 180 -180 1.10429 -8.85741 1.48385 176.166 179.923 175.17 172.688 179.645 167.752 0.693905 0 0
 -4.88139 46.8421 -43.7957 170.083 -83.7095 163.881 0.00152388 -0.0366451 2.38126 1.96045 -0.0731777 3.96877 1.78115 -0.219533 3.96879 0.736761 -0.0366451 2.38126 1.97774 0.0273951 0.79328 2.63219 1.87814 -18.1248 1.24031 23.8239 -3.9692 168.991 -155.882 155.499 106.081 -5.22235 -18.839 93.8673 -13.3261 107.57 -0 14.7497 -52.6081 168.671 154.02 -154.745 70.1979 -19.0242 -8.00302 59.9079 36.2362 -45.6185 -0 19.2718 -37.3693 162.904 143.502 -163.808 8.59427 10.0554 6.08547 159.087 179.771 165.556 179.708 180 -180 2.67423 -8.31085 0.766596 174.332 179.541 177.578 173.445 179.696 167.773 0.702024 0 0
 -4.97306 46.8083 -43.9156 174.744 -84.0152 168.209 0.000850153 -0.0198269 2.45527 1.88585 -0.0395891 4.09211 1.57023 -0.118767 4.09212 0.292333 -0.0198269 2.45527 2.87639 0.0410723 0.817391 4.82361 0.0774031 -19.3942 2.09923 23.6169 -4.70723 169.041 -158.847 155.676 101.045 -2.52954 -19.5264 95.2261 -14.0346 108.919 -0 13.7439 -50.4209 168.858 154.83 -155.182 71.1722 -18.5847 -6.59928 60.4873 36.1079 -46.2281 -0 19.3566 -37.0955 164.377 143.522 -163.966 7.40544 9.93777 6.12572 159.316 179.859 165.566 179.703 180 -180 4.66249 -7.63566 0.450391 172.053 179.204 179.466 173.959 179.774 167.852 0.713794 0 0
